<svg id="Layer_1" data-name="Layer 1" xmlns="http://www.w3.org/2000/svg" viewBox="0 0 130 80"><defs><style>.cls-1{fill:#ec8737;}.cls-2{fill:#2cbd5f;}</style></defs><title>Artboard 1</title><g id="Layer_2" data-name="Layer 2"><path class="cls-1" d="M73.07,77.68c17.5-5.91,32.94-14,35.2-34C111,19.91,94.33,9.83,75.21,2,82,1.69,94.06,6.54,101.43,12.1c19.72,15,20.16,39.37,1.06,55.13C96.18,72.45,81,79.61,73.07,77.68Z"/><path class="cls-2" d="M60,2.33c-17.47,5.9-32.91,14-35.18,34-2.71,23.81,14,33.9,33.06,41.67-6.78.33-18.84-4.52-26.22-10.07-19.72-15-20.15-39.38-1.06-55.13C36.86,7.55,52,.39,60,2.33Z"/><path d="M63.4,30.05c7-.91,8,.64,6.1,8.91-7.61,2.78-.3,6.42-.38,9.84-3.33-1.58-4.35-5.3-7.4-6.89l3.13,5.42-4.5-3.72c-1.53,4.47-2,9.32.78,12.29,3.15,3.37,10.65,2,13.51-1.12l-5-.73c5.52-3.62,6.69-7,4.46-11.27-1.08-2.06-3.53-2.11-4.72-3.87,5-.4,6.37,3.12,7.67,7C80.79,57,78.33,60.68,66.93,60.58a27.66,27.66,0,0,1-5.66-.71,7.17,7.17,0,0,1-5.48-5.28c-1.11-3.66,2.5-13.56,5.77-15.67,1.16-.75,1.34-1.51.72-2.55-1.53-2.55-.64-4.52,1.24-6.38Z"/><path d="M50.24,37.14c1.59,3,1.93,6.5,3.6,9.58,1.45,2.64-2.75,7.3-6.48,7.23A35.5,35.5,0,0,1,37,52.42c-3.62-1.13-4.85-3.62-3.53-7.33a24.76,24.76,0,0,1,1.65-3.68c2.75-4.89,6.62-9,9.31-13.94,1.41-2.6,4.11-2.94,6.52-1.29s2.23,3.84.39,5.76c-1.62,1.63,1,3.93-1.08,5.34-.1-1.7-.4-3.19-2.42-1.52a38,38,0,0,0-3,3.08l-2,1c.3-2.45,2.93-3.3,2.74-5.64-1.06-.22-2.4-.76-3,.07-2.65,3.77-5.89,7.16-7.15,11.75a3.45,3.45,0,0,0,1.89,4.44,3.13,3.13,0,0,0,.52.16,37.77,37.77,0,0,0,5.17.9c3.75.57,4.42-1.42,3.4-4.52a31.49,31.49,0,0,1-1.59-8.33C48,42.1,47.43,47.1,50,51.6,51.91,46.36,49.3,41.68,50.24,37.14Z"/><path d="M83.81,37.14c-.84-2.51-.52-5.25-2-7.7-.8-1.3.64-2.84,2-3.57,1.86-1,4.3-1.08,5.25.69,3.53,6.65,9.72,11.58,12,19.09,1.07,3.55-.39,5.57-3.4,6.65A31.51,31.51,0,0,1,86.74,54c-4.55,0-7.07-4.65-5.3-8.79a70.29,70.29,0,0,0,2.35-8.14c1,3.55.12,7.07-.37,10.56-.22,1.6.08,2.43,1.41,3.2,2-4,1.71-8.5,4.42-11.83a21.9,21.9,0,0,1-1,7.53c-.45,1.81-2.14,4.16,1.14,5,4,1.08,9.29-1.18,9.71-3.94.32-2.34-5.57-12.83-7.8-13.56a2.18,2.18,0,0,0-2.52.62c.42,2.21,2.79,3.35,3.87,5.82l-3.52-1.41c-.79-1-1.53-2.06-2.37-3C84.93,34,84.21,35.2,83.81,37.14Z"/><path d="M63.49,30c-3,1.42-5.49,3.16-3.84,7.23-2.46-.08-3.23-1.35-2.35-3.56a27.46,27.46,0,0,1,4.55-7.13c.34-.4.7-1.05,1.4-.64s.41,3.14,2.08,1.29c1.29-1.4-1.06-1.62-1.45-2.63-.72-1.8-1-3.55,1-4.71a2.85,2.85,0,0,1,4.23,1c.86,1.61,1.53,4.06-.15,5.63s-3.67,2.44-5.53,3.6Z"/><path d="M71.37,26.21c2.6,4.22,5.79,7.06,2.41,11.24C74.09,33.9,72,30.84,71.37,26.21Z"/></g><path d="M19.27,58.81A2,2,0,0,0,16.6,58a2.45,2.45,0,0,0-.67.47,2.07,2.07,0,0,0-.24-1.36,2.83,2.83,0,0,0-.41-.61L18,55l-.2-1h-.13l-6.79,3.54-1.08-2.1L16.5,52.1l-.21-1h-.12L9.38,54.69l-.7-1.34H8.57L8,54.08l3.42,6.62h.12l.54-.73-.78-1.45,2.74-1.4a2.43,2.43,0,0,1,1,1.06,1.36,1.36,0,0,1,.17,1.06,3.68,3.68,0,0,0-.17.73,1.6,1.6,0,0,0-1.25.09,2.48,2.48,0,0,0-1.16,1.23,2.35,2.35,0,0,0,0,2.1,3.85,3.85,0,0,0,1.62,1.45h0l.61-1a4,4,0,0,1-1.62-1.44,1,1,0,0,1,.33-1.28,1.35,1.35,0,0,1,1.29.1,6.14,6.14,0,0,0,1.42,1.63h.06l.6-1A4.23,4.23,0,0,1,16,60.64s-.05-.1-.08-.16A1.11,1.11,0,0,1,16.46,59a1.63,1.63,0,0,1,2.07.73c.54,1,.15,2.42-1.05,4.1l.5.31H18c1.35-1.86,2.1-3.66,1.27-5.25A1,1,0,0,0,19.27,58.81Z"/><path d="M7.11,44.6l1.61-.32.82,4.17h.12l.79-.54c-.08-1.37.46-1.82.87-1.91A1.47,1.47,0,0,1,13,47.19c.21,1.1-.64,2.32-2.74,3.71l.39.48h.07c2.62-1.69,3.61-3.29,3.3-4.82v0a1.84,1.84,0,0,0-2.13-1.47,3.59,3.59,0,0,0-1.77,1.08l-.41-2.07,4.76-1,.06-1-.11-.07-7.5,1.52-.29-1.49H6.52l-.72.55,2,10h.11l.71-.51Z"/><path d="M4.26,43.8H4.14a1.14,1.14,0,0,1-1-1.25c0-1.15,1-1.92,2.85-2.1V42l.1.07.72-.36V40.48l7.5-.13.24-1-.1-.08-7.61.19V38l-.09-.06-.8.41v1.21c-2.19.33-3.67,1.92-3.67,3.52,0,.07,0,.13,0,.19a1.61,1.61,0,0,0,1.64,1.58,2.4,2.4,0,0,0,1.47-.66l.39-.9-.09-.07A2.41,2.41,0,0,1,4.26,43.8Z"/><path d="M4.51,36.86A2.28,2.28,0,0,0,6,36.42l-.11,1.67.08.06.84-.34.08-1.19,7.47.58.32-1-.09-.08L7,35.67l.11-1.51L7,34.08l-.84.34-.08,1.33a1.5,1.5,0,0,1-1,.19c-1-.07-1.86-.91-1.74-2.54s1.18-3,2.8-4.3V29l-.39-.33c-2.08,1.59-3.27,3.37-3.4,5.2S3.34,36.77,4.51,36.86Z"/><path d="M6.13,33.93,7,33.71l1.19-5.33,1.41.32a8.67,8.67,0,0,0-.79,2.17c-.32,1.43.22,2.65,1.46,2.93a2.86,2.86,0,0,0,3.23-2.27,3.16,3.16,0,0,0-.19-2l2.23.53.45-.86-.06-.1L8.39,27.46,8.72,26l-.07-.09-.88.22L6.05,33.84Zm3.76-3.68a5.73,5.73,0,0,1,.54-1.39l.86.19c1.35.3,1.38,2,1.23,2.7-.22,1-.87,1.3-1.49,1.16-.78-.17-1.47-1-1.1-2.66Z"/><path d="M16.54,18.26a2,2,0,0,0-2.73.8,2.33,2.33,0,0,0,0,1.9l-2.35-1.1,1.9-3.94,0-.1H12.4L8,25.05l0,.11.94,0,2.14-4.47,1.33.64a7.62,7.62,0,0,0-1.08,1.6c-.58,1.24-.38,2.5.75,3.05a2.58,2.58,0,0,0,3.51-3.09L17.83,24l.62-.71-.05-.12-3.17-1.51a3.2,3.2,0,0,1-.34-2.56A.3.3,0,0,1,15,19a.6.6,0,0,1,.83-.19,4.49,4.49,0,0,1,1.72,2.32l.95-.52v-.07A4.39,4.39,0,0,0,16.54,18.26Zm-2.13,6.51a1.15,1.15,0,0,1-.1.23,1,1,0,0,1-1.31.29,1.9,1.9,0,0,1-.6-2.57,5.85,5.85,0,0,1,.68-1.09l1.19.62A3.2,3.2,0,0,1,14.41,24.77Z"/><polygon points="21.36 18.23 21.36 18.35 20.61 18.97 14.54 14.68 13.88 15.63 12.97 15.52 12.97 15.41 15.04 12.4 15.93 12.53 15.93 12.65 15.05 13.88 21.36 18.23"/><path d="M110,16.31h.22l2-.61,2,2.85L113,20.33a.37.37,0,0,0-.05.11.17.17,0,0,0,0,.1.89.89,0,0,0,.08.17l.18.27.2.26a.24.24,0,0,0,.14.1.19.19,0,0,0,.15,0,1.43,1.43,0,0,0,.15-.18l4.76-6.78a.35.35,0,0,0,.06-.14.17.17,0,0,0,0-.14,2,2,0,0,0-.1-.21l-.19-.28-.19-.26a.7.7,0,0,0-.15-.19.27.27,0,0,0-.13-.07h-.13l-8,2.22a.55.55,0,0,0-.22.1.12.12,0,0,0-.08.11.25.25,0,0,0,0,.17,2.26,2.26,0,0,0,.16.26l.18.24Zm7.43-2.09-2.57,3.63-1.7-2.39Z"/><path d="M113.86,21.47a.12.12,0,0,0-.1.09.28.28,0,0,0,0,.18,2.07,2.07,0,0,0,.26.54.44.44,0,0,0,.12.15l.11.05h.11l2.11-.27L118,25.34l-1.51,1.56-.06.08a.24.24,0,0,0,0,.12,1.21,1.21,0,0,0,0,.18l.14.28a1.59,1.59,0,0,0,.15.29.33.33,0,0,0,.13.13.11.11,0,0,0,.13,0,.58.58,0,0,0,.19-.15l5.77-6a.44.44,0,0,0,.08-.11.43.43,0,0,0,0-.16,1.72,1.72,0,0,0-.07-.21c0-.1-.09-.21-.14-.31s-.16-.21-.16-.29a.66.66,0,0,0-.12-.17.26.26,0,0,0-.11-.07.19.19,0,0,0-.15,0l-8.25.95A.86.86,0,0,0,113.86,21.47Zm8,.06-3.11,3.18-1.29-2.62Z"/><path d="M118.87,29.55a1.09,1.09,0,0,1-.44,0,.56.56,0,0,1-.27-.19A.91.91,0,0,1,118,29a1.37,1.37,0,0,1-.07-.34,1.41,1.41,0,0,1,0-.29.39.39,0,0,0,0-.22.33.33,0,0,0,0-.14.35.35,0,0,0,0-.08h-.25l-.23.07a.67.67,0,0,0-.18.07l-.12.06-.08.06a.26.26,0,0,0,0,.09.43.43,0,0,0,0,.16,1.31,1.31,0,0,0,0,.28,1.93,1.93,0,0,0,0,.34,2.21,2.21,0,0,0,.08.35,2.3,2.3,0,0,0,.43.8,1.59,1.59,0,0,0,.61.42,1.82,1.82,0,0,0,.77.07,3.91,3.91,0,0,0,.9-.2l5.82-2a.1.1,0,0,0,.06-.05.21.21,0,0,0,0-.11.48.48,0,0,0,0-.17,2.5,2.5,0,0,0-.07-.26,2.6,2.6,0,0,0-.1-.25.53.53,0,0,0-.08-.15.17.17,0,0,0-.1-.07.11.11,0,0,0-.08,0l-5.71,1.9A3.14,3.14,0,0,1,118.87,29.55Z"/><path d="M118.5,33.13a.5.5,0,0,0,0,.3l.74,4a.17.17,0,0,0,0,.1l.09.06h.36l.29,0,.13-.07.07-.09v-.09L119.52,34l3-.55.5,2.78v.1h.1a.29.29,0,0,0,.13,0h.21l.21-.06.13-.07a.27.27,0,0,0,.07-.08.17.17,0,0,0,0-.1l-.52-2.78,2.6-.47.6,3.23a.1.1,0,0,0,.1.14h.14l.27,0,.21-.05a.39.39,0,0,0,.14-.08.12.12,0,0,0,.07-.07.21.21,0,0,0,0-.11l-.72-3.92a.46.46,0,0,0-.15-.26.42.42,0,0,0-.37-.07l-7.39,1.36A.43.43,0,0,0,118.5,33.13Z"/><path d="M127.67,39.24a.4.4,0,0,0-.36-.13l-7.51,0a.41.41,0,0,0-.44.43v4a.14.14,0,0,0,0,.09.3.3,0,0,0,.08.08.38.38,0,0,0,.15,0h.2l.38-.08h.15a.11.11,0,0,0,.07-.08.14.14,0,0,0,0-.09V40.22h3v2.85a.17.17,0,0,0,0,.1l.07.07h.7a.27.27,0,0,0,.08-.07.17.17,0,0,0,0-.1V40.22h2.63v3.29a.17.17,0,0,0,0,.1.16.16,0,0,0,.08.06h.71a.15.15,0,0,0,.09-.06.17.17,0,0,0,0-.1v-4A.45.45,0,0,0,127.67,39.24Z"/><path d="M127.2,45.91,119,47.16h-.17l0,.09a.24.24,0,0,0,0,.12.64.64,0,0,0-.06.18.37.37,0,0,0,0,.25v.31a.81.81,0,0,0,0,.22.28.28,0,0,0,0,.13.31.31,0,0,0,.11.09l7.08,4.17a1.13,1.13,0,0,0,.22.11.17.17,0,0,0,.14,0,.29.29,0,0,0,.09-.15,2.32,2.32,0,0,1,.08-.3.83.83,0,0,0,0-.32v-.18a.21.21,0,0,0-.06-.1l-.11-.07-6.51-3.61L127.17,47h.11a.18.18,0,0,0,.09-.08.34.34,0,0,0,.06-.15,1.4,1.4,0,0,0,.06-.28,1.34,1.34,0,0,0,.06-.35.34.34,0,0,0,0-.2.14.14,0,0,0-.12-.07A.45.45,0,0,0,127.2,45.91Z"/><path d="M117.75,52.35h-.1a.18.18,0,0,0-.08.07.56.56,0,0,0-.1.15,1.86,1.86,0,0,0-.1.25.36.36,0,0,0-.08.25v.18a.21.21,0,0,0,0,.11h.08L125,56.07h.09s.09-.06.09-.06a.78.78,0,0,0,.1-.15,1.86,1.86,0,0,0,.1-.25,2.41,2.41,0,0,0,.08-.25v-.17a.24.24,0,0,0,0-.12.16.16,0,0,0-.08-.06Z"/><path d="M116.65,55.23h-.09a.24.24,0,0,0-.11.06l-.11.13c0,.07-.13.15-.13.24a1.12,1.12,0,0,0-.11.25v.17a.17.17,0,0,0,0,.1l.07.07,3.75,1.9-5.16.86a.44.44,0,0,0-.15.05.41.41,0,0,0-.16.16,2.07,2.07,0,0,0-.19.32l-.12.26V60a.2.2,0,0,0,0,.11l.08.06.07,0h.26l4.93-.86,1.7,4a1.28,1.28,0,0,0,.15.25.24.24,0,0,0,.13.11h.08a.17.17,0,0,0,.1,0l.11-.12a1,1,0,0,0,.14-.24L122,63a1.05,1.05,0,0,0,0-.19v-.14a.61.61,0,0,0,0-.12l-1.9-4.35,3.28,1.71h.09a.31.31,0,0,0,.1,0l.11-.14a1.38,1.38,0,0,0,.14-.24,1,1,0,0,0,.1-.24.64.64,0,0,0,0-.17V59a.16.16,0,0,0-.07-.07Z"/><path d="M114.24,60.53a.9.9,0,0,0-.15-.19.33.33,0,0,0-.14,0,.31.31,0,0,0-.15.1,1.59,1.59,0,0,0-.2.24l-.16.24V61a.24.24,0,0,0,0,.12v.1L114.66,63l-2.12,2.8-2.06-.66h-.22a.8.8,0,0,0-.13.13,6.41,6.41,0,0,0-.39.52.27.27,0,0,0-.06.17.16.16,0,0,0,.08.12.73.73,0,0,0,.22.09l7.91,2.48a.33.33,0,0,0,.14,0,.35.35,0,0,0,.14-.06l.16-.15a3,3,0,0,0,.22-.28l.18-.26a.69.69,0,0,0,.1-.19.17.17,0,0,0,0-.14.25.25,0,0,0,0-.12Zm-.8,5.6,1.76-2.35,2.47,3.7Z"/></svg>