<?xml version="1.0" encoding="utf-8"?>
<!-- Generator: Adobe Illustrator 24.0.0, SVG Export Plug-In . SVG Version: 6.00 Build 0)  -->
<svg version="1.1" id="Layer_1" xmlns="http://www.w3.org/2000/svg" xmlns:xlink="http://www.w3.org/1999/xlink" x="0px" y="0px"
	 viewBox="0 0 30 30" style="enable-background:new 0 0 30 30;" xml:space="preserve">
<style type="text/css">
	.st0{fill:#EC8737;}
	.st1{fill:#2CBD5F;}
</style>
<path class="st0" d="M17,26.3c5.3-1.8,9.9-4.2,10.6-10.2C28.3,9,23.3,5.9,17.6,3.6c2-0.1,5.7,1.4,7.9,3c5.9,4.5,6.1,11.8,0.3,16.5
	C23.9,24.7,19.3,26.9,17,26.3z"/>
<path class="st1" d="M13,3.7C7.8,5.5,3.2,7.9,2.5,13.9C1.7,21,6.7,24.1,12.4,26.4c-2,0.1-5.7-1.4-7.9-3c-5.9-4.5-6-11.8-0.3-16.5
	C6.1,5.3,10.6,3.1,13,3.7z"/>
<path d="M14.1,12c2.1-0.3,2.4,0.2,1.8,2.7c-2.3,0.8-0.1,1.9-0.1,3c-1-0.5-1.3-1.6-2.2-2.1l0.9,1.6l-1.4-1.1
	c-0.5,1.3-0.6,2.8,0.2,3.7c0.9,1,3.2,0.6,4.1-0.3l-1.5-0.2c1.7-1.1,2-2.1,1.3-3.4c-0.3-0.6-1.1-0.6-1.4-1.2c1.5-0.1,1.9,0.9,2.3,2.1
	c1.1,3.3,0.4,4.4-3,4.4c-0.6,0-1.1-0.1-1.7-0.2c-0.8-0.2-1.4-0.8-1.6-1.6c-0.3-1.1,0.8-4.1,1.7-4.7c0.3-0.2,0.4-0.5,0.2-0.8
	C13.3,13.1,13.5,12.6,14.1,12L14.1,12z"/>
<path d="M10.1,14.1c0.5,0.9,0.6,2,1.1,2.9c0.4,0.8-0.8,2.2-1.9,2.2c-1.1,0-2.1-0.2-3.1-0.5c-1.1-0.3-1.5-1.1-1.1-2.2
	c0.1-0.4,0.3-0.8,0.5-1.1c0.8-1.5,2-2.7,2.8-4.2c0.4-0.8,1.2-0.9,2-0.4c0.7,0.5,0.7,1.2,0.1,1.7C9.9,13.1,10.7,13.8,10.1,14.1
	c0-0.5-0.1-0.9-0.7-0.4c-0.3,0.3-0.6,0.6-0.9,0.9L7.9,15c0.1-0.7,0.9-1,0.8-1.7c-0.3-0.1-0.7-0.2-0.9,0C7,14.4,6,15.4,5.7,16.8
	c-0.2,0.5,0,1.1,0.6,1.3c0.1,0,0.1,0,0.2,0c0.5,0.1,1,0.2,1.6,0.3c1.1,0.2,1.3-0.4,1-1.4c-0.3-0.8-0.4-1.6-0.5-2.5
	c1,1,0.8,2.5,1.6,3.9C10.6,16.9,9.8,15.5,10.1,14.1z"/>
<path d="M20.2,14.1c-0.3-0.8-0.2-1.6-0.6-2.3c-0.2-0.4,0.2-0.9,0.6-1.1c0.6-0.3,1.3-0.3,1.6,0.2c1.1,2,2.9,3.5,3.6,5.7
	c0.3,1.1-0.1,1.7-1,2c-1.1,0.4-2.2,0.5-3.3,0.5c-1.4,0-2.1-1.4-1.6-2.6C19.8,15.8,20,14.9,20.2,14.1c0.3,1,0,2.1-0.1,3.1
	c-0.1,0.5,0,0.7,0.4,1c0.6-1.2,0.5-2.6,1.3-3.6c0,0.8-0.1,1.5-0.3,2.3c-0.1,0.5-0.6,1.2,0.3,1.5c1.2,0.3,2.8-0.4,2.9-1.2
	c0.1-0.7-1.7-3.9-2.3-4.1c-0.3-0.1-0.6,0-0.8,0.2c0.1,0.7,0.8,1,1.2,1.7l-1.1-0.4c-0.2-0.3-0.5-0.6-0.7-0.9
	C20.5,13.2,20.3,13.6,20.2,14.1z"/>
<path d="M14.1,12c-0.9,0.4-1.6,0.9-1.2,2.2c-0.7,0-1-0.4-0.7-1.1c0.3-0.8,0.8-1.5,1.4-2.1c0.1-0.1,0.2-0.3,0.4-0.2
	c0.2,0.1,0.1,0.9,0.6,0.4c0.4-0.4-0.3-0.5-0.4-0.8C14,9.8,13.9,9.3,14.5,9c0.4-0.3,0.9-0.2,1.2,0.2c0,0,0.1,0.1,0.1,0.1
	c0.3,0.5,0.5,1.2,0,1.7C15.2,11.4,14.6,11.7,14.1,12L14.1,12z"/>
<path d="M16.4,10.9c0.8,1.3,1.7,2.1,0.7,3.4C17.3,13.2,16.6,12.3,16.4,10.9z"/>
</svg>
